<svg xmlns="http://www.w3.org/2000/svg" width="60" height="60" viewBox="0 0 60 60"><g><g><g/><g><g><g><path fill="#018849" d="M38.557 7.414C37.954 3.188 34.275 0 30 0a8.676 8.676 0 0 0-6.984 3.55 1.017 1.017 0 1 0 1.642 1.2A6.64 6.64 0 0 1 30 2.034c3.27 0 6.082 2.437 6.543 5.667a1.018 1.018 0 0 0 2.014-.287z"/></g></g></g><g><g><g><path fill="#018849" d="M53.245 18.799l-3.051-5.085a1.016 1.016 0 0 0-.872-.494h-2.924a1.017 1.017 0 0 0 0 2.034h2.348l1.83 3.05H9.424l1.83-3.05h1.077a1.017 1.017 0 0 0 0-2.034h-1.652c-.358 0-.689.187-.872.494l-3.051 5.085a1.018 1.018 0 0 0 .872 1.54h44.746a1.017 1.017 0 0 0 .872-1.54z"/></g></g></g><g><g><g><path fill="#018849" d="M48.18 9.423a1.015 1.015 0 0 0-.632-.454L33.683 5.727a1.019 1.019 0 0 0-1.222.758l-1.045 4.47a1.016 1.016 0 1 0 1.98.462l.814-3.478 11.883 2.78-1.867 7.982a1.016 1.016 0 1 0 1.98.463l2.099-8.973a1.013 1.013 0 0 0-.126-.768z"/></g></g></g><g><g><g><path fill="#018849" d="M30.532 11.825l-.926-7.837a1.015 1.015 0 0 0-1.13-.891l-17.009 2.01a1.017 1.017 0 0 0-.89 1.13l1.545 13.071a1.017 1.017 0 1 0 2.02-.239L12.716 7.007l14.99-1.771.806 6.827a1.018 1.018 0 0 0 2.02-.238z"/></g></g></g><g><g><g><path fill="#018849" d="M38.577 18.932l-2.018-8.394a1.02 1.02 0 0 0-1.227-.75l-16.383 3.94c-.546.13-.882.68-.75 1.226l1.008 4.196a1.016 1.016 0 1 0 1.978-.476l-.772-3.207 14.405-3.463 1.781 7.404a1.017 1.017 0 1 0 1.978-.476z"/></g></g></g><g><g><g><path fill="#018849" d="M55.427 58.936a1.02 1.02 0 0 1-1.017 1.069H5.597a1.019 1.019 0 0 1-1.016-1.07l2.034-39.66c.028-.541.475-.965 1.016-.965h44.746c.542 0 .988.424 1.016.965zm-2.087-.965l-1.93-37.627H8.597L6.667 57.97z"/></g></g></g><g><g><g><path fill="#018849" d="M40.682 25.42a3.054 3.054 0 0 1-3.051 3.052 3.054 3.054 0 0 1-3.051-3.051 3.054 3.054 0 0 1 3.05-3.051 3.054 3.054 0 0 1 3.052 3.05zm-2.034.001a1.018 1.018 0 0 0-2.034 0 1.018 1.018 0 0 0 2.034 0z"/></g></g></g><g><g><g><path fill="#018849" d="M25.422 25.42a3.054 3.054 0 0 1-3.051 3.052 3.054 3.054 0 0 1-3.051-3.051 3.054 3.054 0 0 1 3.05-3.051 3.054 3.054 0 0 1 3.052 3.05zm-2.034.001a1.018 1.018 0 0 0-2.034 0 1.018 1.018 0 0 0 2.034 0z"/></g></g></g><g><g><g><path fill="#018849" d="M37.631 25.42h-.078a1.017 1.017 0 0 0-.939 1.409v5.201a6.618 6.618 0 0 1-6.61 6.61 6.618 6.618 0 0 1-6.61-6.61v-5.593a1.017 1.017 0 0 0-2.034 0v5.593c0 4.767 3.878 8.644 8.644 8.644s8.644-3.877 8.644-8.644v-5.593c0-.561-.456-1.017-1.017-1.017z"/></g></g></g></g></g></svg>