<svg xmlns="http://www.w3.org/2000/svg" width="20" height="20" viewBox="0 0 20 20"><g><g><g/><g><g/></g><g><g><g><path fill="#888" d="M15.833 2.5c.917 0 1.667.75 1.667 1.667v11.666c0 .917-.75 1.667-1.667 1.667H4.167c-.917 0-1.667-.75-1.667-1.667V4.167c0-.917.75-1.667 1.667-1.667zm0 1.667H4.167v11.666h11.666z"/></g><g><path fill="#888" d="M9.377 6.43H5.21v1.25h4.167z"/></g><g><path fill="#888" d="M14.997 13.13H10.83v1.25h4.167z"/></g><g><path fill="#888" d="M14.997 11.04H10.83v1.25h4.167z"/></g><g><path fill="#888" d="M6.667 15.003h1.25v-1.666h1.666v-1.25H7.917V10.42h-1.25v1.667H5v1.25h1.667z"/></g><g><path fill="#888" d="M11.743 9.125l1.175-1.175 1.175 1.175.884-.883-1.175-1.184 1.175-1.175L14.093 5l-1.175 1.175L11.743 5l-.883.883 1.175 1.175-1.175 1.184z"/></g></g></g></g></g></svg>