<svg xmlns="http://www.w3.org/2000/svg" width="21" height="20" viewBox="0 0 21 20"><g><g transform="rotate(-90 11 10)"><g/><g><g/><g><path fill="#888" d="M15.167 3.33L18.5 6.663l-3.333 3.334v-2.5h-3.334V5.83h3.334zm-5 3.333a.836.836 0 0 1-.834.834.836.836 0 0 1-.833-.834c0-.458.375-.833.833-.833.459 0 .834.375.834.833zm-3.334 0A.836.836 0 0 1 6 7.497a.836.836 0 0 1-.833-.834c0-.458.375-.833.833-.833.458 0 .833.375.833.833zm0 10L3.5 13.33l3.333-3.333v2.5h3.334v1.666H6.833zm5-3.333c0-.458.375-.833.834-.833.458 0 .833.375.833.833a.836.836 0 0 1-.833.833.836.836 0 0 1-.834-.833zm3.334 0c0-.458.375-.833.833-.833.458 0 .833.375.833.833a.836.836 0 0 1-.833.833.836.836 0 0 1-.833-.833z"/></g></g></g></g></svg>