<svg xmlns="http://www.w3.org/2000/svg" width="91" height="18" viewBox="0 0 91 18"><g><g><path fill="#fff" d="M0 17.463V.39h5.945c1.824 0 3.401.35 4.733 1.049A7.313 7.313 0 0 1 13.77 4.39c.729 1.269 1.094 2.78 1.094 4.537 0 1.756-.365 3.276-1.095 4.56-.729 1.27-1.76 2.253-3.091 2.952-1.332.683-2.91 1.024-4.733 1.024zm4.162-13.39v9.708h1.64c.857 0 1.657-.147 2.403-.44a3.927 3.927 0 0 0 1.807-1.512c.46-.715.69-1.683.69-2.902 0-1.22-.23-2.179-.69-2.878-.46-.716-1.062-1.22-1.807-1.512a6.209 6.209 0 0 0-2.402-.464zm12.994 1.244a8.64 8.64 0 0 1 1.903-2.83A8.563 8.563 0 0 1 21.912.66C23.006.219 24.187 0 25.456 0c1.284 0 2.473.22 3.567.659a8.013 8.013 0 0 1 2.83 1.829 8.342 8.342 0 0 1 1.879 2.83c.46 1.089.69 2.292.69 3.609 0 1.317-.223 2.528-.667 3.634a8.258 8.258 0 0 1-1.855 2.878 8.685 8.685 0 0 1-2.853 1.903c-1.078.439-2.275.658-3.591.658-1.3 0-2.497-.22-3.591-.658a8.685 8.685 0 0 1-2.854-1.903 8.547 8.547 0 0 1-1.879-2.878c-.428-1.106-.642-2.317-.642-3.634 0-1.317.222-2.52.666-3.61zm4.162 6.293a4.516 4.516 0 0 0 1.664 1.805c.714.439 1.538.658 2.474.658.951 0 1.775-.22 2.473-.658a4.404 4.404 0 0 0 1.617-1.805c.397-.78.595-1.675.595-2.683 0-1.008-.19-1.894-.571-2.659-.38-.78-.92-1.39-1.617-1.829-.698-.439-1.53-.659-2.497-.659-.936 0-1.76.22-2.474.659a4.479 4.479 0 0 0-1.664 1.83c-.38.764-.571 1.65-.571 2.658s.19 1.902.57 2.683zM36.973.39h4.019v13.512h6.683v3.561H36.973zm20.096 10.903V8.122h8.419c.08 1.35-.056 2.626-.404 3.83a9.06 9.06 0 0 1-1.617 3.146 7.671 7.671 0 0 1-2.735 2.146c-1.078.504-2.33.756-3.758.756-1.76 0-3.33-.382-4.709-1.146a8.518 8.518 0 0 1-3.234-3.171c-.777-1.366-1.165-2.951-1.165-4.756 0-1.805.404-3.374 1.213-4.707a8.248 8.248 0 0 1 3.305-3.122C53.78.366 55.357 0 57.117 0c1.76 0 3.258.382 4.495 1.146a9.328 9.328 0 0 1 3.02 2.903L61.04 5.95a5.265 5.265 0 0 0-1.522-1.683c-.618-.455-1.42-.683-2.402-.683-.92 0-1.768.212-2.545.635-.76.422-1.371 1.032-1.83 1.829-.445.797-.667 1.756-.667 2.878s.214 2.097.642 2.927a4.908 4.908 0 0 0 1.808 1.902c.76.44 1.625.659 2.592.659 1.22 0 2.188-.293 2.901-.878a4.618 4.618 0 0 0 1.475-2.244zM68.186.39h4.09v17.073h-4.09zm7.618 0h4.019v6.22h7.158V.39H91v17.073h-4.02v-7.146h-7.157v7.146h-4.02z"/></g></g></svg>